<?xml version="1.0" encoding="utf-8"?><svg xml:space="preserve" viewBox="0 0 100 100" y="0" x="0" xmlns="http://www.w3.org/2000/svg" id="圖層_1" version="1.1" width="128px" height="128px" xmlns:xlink="http://www.w3.org/1999/xlink" style="width:100%;height:100%;animation-play-state:paused" ><g class="ldl-scale" style="transform-origin:50% 50% 0px;transform:rotate(0deg) scale(0.8);animation-play-state:paused" ><path fill="#333" d="M32.98 51.549l42 30.171c1.262.907 3.02.005 3.02-1.549V19.828c0-1.554-1.758-2.456-3.02-1.549l-42 30.172a1.908 1.908 0 0 0 0 3.098z" style="fill:rgb(51, 51, 51);animation-play-state:paused" ></path>
<path fill="#333" d="M24.071 82.25h6.402a2.07 2.07 0 0 0 2.071-2.071V19.821a2.07 2.07 0 0 0-2.071-2.071h-6.402A2.07 2.07 0 0 0 22 19.821v60.358a2.07 2.07 0 0 0 2.071 2.071z" style="fill:rgb(51, 51, 51);animation-play-state:paused" ></path>
<metadata xmlns:d="https://loading.io/stock/" style="animation-play-state:paused" ><d:name style="animation-play-state:paused" >rewind</d:name>


<d:tags style="animation-play-state:paused" >rewind,back,seek,behind,speed down,slower,decrease,previous section,player</d:tags>


<d:license style="animation-play-state:paused" >by</d:license>


<d:slug style="animation-play-state:paused" >oxmvp3</d:slug></metadata></g><!-- generated by https://loading.io/ --></svg>